<mxfile host="app.diagrams.net" agent="Mozilla/5.0 (Macintosh; Intel Mac OS X 10_15_7) AppleWebKit/537.36 (KHTML, like Gecko) Chrome/129.0.0.0 Safari/537.36" version="24.8.0">
  <diagram name="Page-1" id="_tvDfdzMwDl5-DfZ60uC">
    <mxGraphModel dx="1272" dy="852" grid="1" gridSize="10" guides="1" tooltips="1" connect="1" arrows="1" fold="1" page="1" pageScale="1" pageWidth="850" pageHeight="1100" math="0" shadow="0">
      <root>
        <mxCell id="0" />
        <mxCell id="1" parent="0" />
        <mxCell id="xXyGl-QL723BDFPVCsQ5-4" value="" style="rounded=1;whiteSpace=wrap;html=1;fillColor=#fff2cc;strokeColor=#d6b656;" parent="1" vertex="1">
          <mxGeometry x="190" y="300" width="120" height="60" as="geometry" />
        </mxCell>
        <mxCell id="xXyGl-QL723BDFPVCsQ5-5" value="" style="rounded=1;whiteSpace=wrap;html=1;fillColor=#fff2cc;strokeColor=#d6b656;" parent="1" vertex="1">
          <mxGeometry x="570" y="300" width="120" height="60" as="geometry" />
        </mxCell>
        <mxCell id="xXyGl-QL723BDFPVCsQ5-6" value="User" style="text;html=1;align=center;verticalAlign=middle;whiteSpace=wrap;rounded=0;" parent="1" vertex="1">
          <mxGeometry x="220" y="315" width="60" height="30" as="geometry" />
        </mxCell>
        <mxCell id="UmrfJhxMaLxL_1KEjty2-1" value="Event" style="text;html=1;align=center;verticalAlign=middle;whiteSpace=wrap;rounded=0;" vertex="1" parent="1">
          <mxGeometry x="600" y="315" width="60" height="30" as="geometry" />
        </mxCell>
        <mxCell id="UmrfJhxMaLxL_1KEjty2-2" value="name" style="ellipse;whiteSpace=wrap;html=1;fillColor=#dae8fc;strokeColor=#6c8ebf;" vertex="1" parent="1">
          <mxGeometry x="79" y="190" width="140" height="50" as="geometry" />
        </mxCell>
        <mxCell id="UmrfJhxMaLxL_1KEjty2-4" value="email_add" style="ellipse;whiteSpace=wrap;html=1;fillColor=#dae8fc;strokeColor=#6c8ebf;" vertex="1" parent="1">
          <mxGeometry y="295" width="140" height="50" as="geometry" />
        </mxCell>
        <mxCell id="UmrfJhxMaLxL_1KEjty2-5" value="password" style="ellipse;whiteSpace=wrap;html=1;fillColor=#dae8fc;strokeColor=#6c8ebf;" vertex="1" parent="1">
          <mxGeometry x="10" y="370" width="140" height="50" as="geometry" />
        </mxCell>
        <mxCell id="UmrfJhxMaLxL_1KEjty2-6" value="" style="endArrow=none;html=1;rounded=0;entryX=0;entryY=1;entryDx=0;entryDy=0;exitX=0.671;exitY=0.1;exitDx=0;exitDy=0;exitPerimeter=0;" edge="1" parent="1" source="UmrfJhxMaLxL_1KEjty2-5" target="xXyGl-QL723BDFPVCsQ5-4">
          <mxGeometry width="50" height="50" relative="1" as="geometry">
            <mxPoint x="400" y="360" as="sourcePoint" />
            <mxPoint x="450" y="310" as="targetPoint" />
          </mxGeometry>
        </mxCell>
        <mxCell id="UmrfJhxMaLxL_1KEjty2-7" value="" style="endArrow=none;html=1;rounded=0;entryX=0;entryY=0.25;entryDx=0;entryDy=0;exitX=1;exitY=0.5;exitDx=0;exitDy=0;" edge="1" parent="1" source="UmrfJhxMaLxL_1KEjty2-4" target="xXyGl-QL723BDFPVCsQ5-4">
          <mxGeometry width="50" height="50" relative="1" as="geometry">
            <mxPoint x="154" y="425" as="sourcePoint" />
            <mxPoint x="200" y="370" as="targetPoint" />
          </mxGeometry>
        </mxCell>
        <mxCell id="UmrfJhxMaLxL_1KEjty2-8" value="" style="endArrow=none;html=1;rounded=0;entryX=0.671;entryY=1.04;entryDx=0;entryDy=0;exitX=0.313;exitY=-0.008;exitDx=0;exitDy=0;entryPerimeter=0;exitPerimeter=0;" edge="1" parent="1" source="xXyGl-QL723BDFPVCsQ5-4" target="UmrfJhxMaLxL_1KEjty2-2">
          <mxGeometry width="50" height="50" relative="1" as="geometry">
            <mxPoint x="164" y="435" as="sourcePoint" />
            <mxPoint x="210" y="380" as="targetPoint" />
          </mxGeometry>
        </mxCell>
        <mxCell id="UmrfJhxMaLxL_1KEjty2-10" value="PK" style="text;html=1;align=center;verticalAlign=middle;whiteSpace=wrap;rounded=0;" vertex="1" parent="1">
          <mxGeometry x="60" y="460" width="60" height="30" as="geometry" />
        </mxCell>
        <mxCell id="UmrfJhxMaLxL_1KEjty2-14" value="user_id" style="ellipse;whiteSpace=wrap;html=1;fillColor=#e1d5e7;strokeColor=#9673a6;" vertex="1" parent="1">
          <mxGeometry x="80" y="480" width="140" height="50" as="geometry" />
        </mxCell>
        <mxCell id="UmrfJhxMaLxL_1KEjty2-15" value="" style="endArrow=none;html=1;rounded=0;entryX=0.25;entryY=1;entryDx=0;entryDy=0;exitX=0.5;exitY=0;exitDx=0;exitDy=0;" edge="1" parent="1" source="UmrfJhxMaLxL_1KEjty2-14" target="xXyGl-QL723BDFPVCsQ5-4">
          <mxGeometry width="50" height="50" relative="1" as="geometry">
            <mxPoint x="154" y="425" as="sourcePoint" />
            <mxPoint x="200" y="370" as="targetPoint" />
          </mxGeometry>
        </mxCell>
        <mxCell id="UmrfJhxMaLxL_1KEjty2-16" value="" style="endArrow=none;html=1;rounded=0;exitX=1;exitY=0.5;exitDx=0;exitDy=0;entryX=0;entryY=0.5;entryDx=0;entryDy=0;" edge="1" parent="1" source="xXyGl-QL723BDFPVCsQ5-4" target="xXyGl-QL723BDFPVCsQ5-5">
          <mxGeometry width="50" height="50" relative="1" as="geometry">
            <mxPoint x="400" y="360" as="sourcePoint" />
            <mxPoint x="450" y="310" as="targetPoint" />
          </mxGeometry>
        </mxCell>
        <mxCell id="UmrfJhxMaLxL_1KEjty2-17" value="1&lt;span style=&quot;color: rgba(0, 0, 0, 0); font-family: monospace; font-size: 0px; text-align: start; text-wrap: nowrap;&quot;&gt;%3CmxGraphModel%3E%3Croot%3E%3CmxCell%20id%3D%220%22%2F%3E%3CmxCell%20id%3D%221%22%20parent%3D%220%22%2F%3E%3CmxCell%20id%3D%222%22%20value%3D%22User%22%20style%3D%22text%3Bhtml%3D1%3Balign%3Dcenter%3BverticalAlign%3Dmiddle%3BwhiteSpace%3Dwrap%3Brounded%3D0%3B%22%20vertex%3D%221%22%20parent%3D%221%22%3E%3CmxGeometry%20x%3D%22220%22%20y%3D%22315%22%20width%3D%2260%22%20height%3D%2230%22%20as%3D%22geometry%22%2F%3E%3C%2FmxCell%3E%3C%2Froot%3E%3C%2FmxGraphModel%3E&lt;/span&gt;" style="text;html=1;align=center;verticalAlign=middle;whiteSpace=wrap;rounded=0;" vertex="1" parent="1">
          <mxGeometry x="300" y="305" width="60" height="30" as="geometry" />
        </mxCell>
        <mxCell id="UmrfJhxMaLxL_1KEjty2-18" value="M" style="text;html=1;align=center;verticalAlign=middle;whiteSpace=wrap;rounded=0;" vertex="1" parent="1">
          <mxGeometry x="520" y="300" width="60" height="30" as="geometry" />
        </mxCell>
        <mxCell id="UmrfJhxMaLxL_1KEjty2-19" value="event_name" style="ellipse;whiteSpace=wrap;html=1;fillColor=#dae8fc;strokeColor=#6c8ebf;" vertex="1" parent="1">
          <mxGeometry x="720" y="170" width="140" height="50" as="geometry" />
        </mxCell>
        <mxCell id="UmrfJhxMaLxL_1KEjty2-20" value="event_img" style="ellipse;whiteSpace=wrap;html=1;fillColor=#dae8fc;strokeColor=#6c8ebf;" vertex="1" parent="1">
          <mxGeometry x="800" y="220" width="140" height="50" as="geometry" />
        </mxCell>
        <mxCell id="UmrfJhxMaLxL_1KEjty2-21" value="end_time" style="ellipse;whiteSpace=wrap;html=1;fillColor=#dae8fc;strokeColor=#6c8ebf;" vertex="1" parent="1">
          <mxGeometry x="900" y="265" width="140" height="50" as="geometry" />
        </mxCell>
        <mxCell id="UmrfJhxMaLxL_1KEjty2-22" value="event_date" style="ellipse;whiteSpace=wrap;html=1;fillColor=#dae8fc;strokeColor=#6c8ebf;" vertex="1" parent="1">
          <mxGeometry x="930" y="365" width="140" height="50" as="geometry" />
        </mxCell>
        <mxCell id="UmrfJhxMaLxL_1KEjty2-23" value="event_description" style="ellipse;whiteSpace=wrap;html=1;fillColor=#dae8fc;strokeColor=#6c8ebf;" vertex="1" parent="1">
          <mxGeometry x="790" y="450" width="140" height="50" as="geometry" />
        </mxCell>
        <mxCell id="UmrfJhxMaLxL_1KEjty2-24" value="user_type" style="ellipse;whiteSpace=wrap;html=1;fillColor=#dae8fc;strokeColor=#6c8ebf;" vertex="1" parent="1">
          <mxGeometry x="290" y="190" width="140" height="50" as="geometry" />
        </mxCell>
        <mxCell id="UmrfJhxMaLxL_1KEjty2-25" value="" style="endArrow=none;html=1;rounded=0;entryX=0.5;entryY=1;entryDx=0;entryDy=0;exitX=1;exitY=0;exitDx=0;exitDy=0;" edge="1" parent="1" source="xXyGl-QL723BDFPVCsQ5-4" target="UmrfJhxMaLxL_1KEjty2-24">
          <mxGeometry width="50" height="50" relative="1" as="geometry">
            <mxPoint x="320" y="310" as="sourcePoint" />
            <mxPoint x="403" y="273" as="targetPoint" />
          </mxGeometry>
        </mxCell>
        <mxCell id="UmrfJhxMaLxL_1KEjty2-27" value="event_id" style="ellipse;whiteSpace=wrap;html=1;fillColor=#e1d5e7;strokeColor=#9673a6;" vertex="1" parent="1">
          <mxGeometry x="460" y="180" width="140" height="50" as="geometry" />
        </mxCell>
        <mxCell id="UmrfJhxMaLxL_1KEjty2-28" value="event_publisher_id" style="ellipse;whiteSpace=wrap;html=1;fillColor=#dae8fc;strokeColor=#6c8ebf;" vertex="1" parent="1">
          <mxGeometry x="590" y="150" width="140" height="50" as="geometry" />
        </mxCell>
        <mxCell id="UmrfJhxMaLxL_1KEjty2-29" value="" style="endArrow=none;html=1;rounded=0;entryX=0.5;entryY=1;entryDx=0;entryDy=0;exitX=0.5;exitY=0;exitDx=0;exitDy=0;" edge="1" parent="1" source="xXyGl-QL723BDFPVCsQ5-5" target="UmrfJhxMaLxL_1KEjty2-28">
          <mxGeometry width="50" height="50" relative="1" as="geometry">
            <mxPoint x="320" y="310" as="sourcePoint" />
            <mxPoint x="403" y="273" as="targetPoint" />
          </mxGeometry>
        </mxCell>
        <mxCell id="UmrfJhxMaLxL_1KEjty2-30" value="" style="endArrow=none;html=1;rounded=0;entryX=0;entryY=1;entryDx=0;entryDy=0;exitX=1;exitY=0;exitDx=0;exitDy=0;" edge="1" parent="1" source="xXyGl-QL723BDFPVCsQ5-5" target="UmrfJhxMaLxL_1KEjty2-19">
          <mxGeometry width="50" height="50" relative="1" as="geometry">
            <mxPoint x="640" y="310" as="sourcePoint" />
            <mxPoint x="630" y="230" as="targetPoint" />
          </mxGeometry>
        </mxCell>
        <mxCell id="UmrfJhxMaLxL_1KEjty2-31" value="" style="endArrow=none;html=1;rounded=0;entryX=0;entryY=1;entryDx=0;entryDy=0;exitX=1;exitY=0.5;exitDx=0;exitDy=0;" edge="1" parent="1" source="xXyGl-QL723BDFPVCsQ5-5" target="UmrfJhxMaLxL_1KEjty2-20">
          <mxGeometry width="50" height="50" relative="1" as="geometry">
            <mxPoint x="650" y="320" as="sourcePoint" />
            <mxPoint x="640" y="240" as="targetPoint" />
          </mxGeometry>
        </mxCell>
        <mxCell id="UmrfJhxMaLxL_1KEjty2-32" value="" style="endArrow=none;html=1;rounded=0;entryX=0;entryY=0.5;entryDx=0;entryDy=0;exitX=1;exitY=0.75;exitDx=0;exitDy=0;" edge="1" parent="1" source="xXyGl-QL723BDFPVCsQ5-5" target="UmrfJhxMaLxL_1KEjty2-21">
          <mxGeometry width="50" height="50" relative="1" as="geometry">
            <mxPoint x="660" y="330" as="sourcePoint" />
            <mxPoint x="650" y="250" as="targetPoint" />
          </mxGeometry>
        </mxCell>
        <mxCell id="UmrfJhxMaLxL_1KEjty2-33" value="" style="endArrow=none;html=1;rounded=0;entryX=0.942;entryY=1.067;entryDx=0;entryDy=0;exitX=0.275;exitY=-0.01;exitDx=0;exitDy=0;entryPerimeter=0;exitPerimeter=0;" edge="1" parent="1" source="UmrfJhxMaLxL_1KEjty2-22" target="xXyGl-QL723BDFPVCsQ5-5">
          <mxGeometry width="50" height="50" relative="1" as="geometry">
            <mxPoint x="670" y="340" as="sourcePoint" />
            <mxPoint x="660" y="260" as="targetPoint" />
          </mxGeometry>
        </mxCell>
        <mxCell id="UmrfJhxMaLxL_1KEjty2-34" value="" style="endArrow=none;html=1;rounded=0;entryX=0.5;entryY=1;entryDx=0;entryDy=0;exitX=0.4;exitY=0.04;exitDx=0;exitDy=0;exitPerimeter=0;" edge="1" parent="1" source="UmrfJhxMaLxL_1KEjty2-23" target="xXyGl-QL723BDFPVCsQ5-5">
          <mxGeometry width="50" height="50" relative="1" as="geometry">
            <mxPoint x="680" y="350" as="sourcePoint" />
            <mxPoint x="670" y="270" as="targetPoint" />
          </mxGeometry>
        </mxCell>
        <mxCell id="UmrfJhxMaLxL_1KEjty2-35" value="" style="endArrow=none;html=1;rounded=0;entryX=1;entryY=0;entryDx=0;entryDy=0;exitX=0.675;exitY=0.99;exitDx=0;exitDy=0;exitPerimeter=0;" edge="1" parent="1" source="UmrfJhxMaLxL_1KEjty2-27" target="UmrfJhxMaLxL_1KEjty2-18">
          <mxGeometry width="50" height="50" relative="1" as="geometry">
            <mxPoint x="520" y="250" as="sourcePoint" />
            <mxPoint x="680" y="280" as="targetPoint" />
          </mxGeometry>
        </mxCell>
        <mxCell id="UmrfJhxMaLxL_1KEjty2-36" value="PK" style="text;html=1;align=center;verticalAlign=middle;whiteSpace=wrap;rounded=0;" vertex="1" parent="1">
          <mxGeometry x="450" y="160" width="60" height="30" as="geometry" />
        </mxCell>
        <mxCell id="UmrfJhxMaLxL_1KEjty2-38" value="FK" style="text;html=1;align=center;verticalAlign=middle;whiteSpace=wrap;rounded=0;" vertex="1" parent="1">
          <mxGeometry x="580" y="130" width="60" height="30" as="geometry" />
        </mxCell>
        <mxCell id="UmrfJhxMaLxL_1KEjty2-39" value="start_time" style="ellipse;whiteSpace=wrap;html=1;fillColor=#dae8fc;strokeColor=#6c8ebf;" vertex="1" parent="1">
          <mxGeometry x="930" y="315" width="140" height="50" as="geometry" />
        </mxCell>
        <mxCell id="UmrfJhxMaLxL_1KEjty2-40" value="" style="endArrow=none;html=1;rounded=0;entryX=0.25;entryY=1;entryDx=0;entryDy=0;exitX=0.5;exitY=0;exitDx=0;exitDy=0;" edge="1" parent="1" source="UmrfJhxMaLxL_1KEjty2-41" target="xXyGl-QL723BDFPVCsQ5-5">
          <mxGeometry width="50" height="50" relative="1" as="geometry">
            <mxPoint x="600" y="610" as="sourcePoint" />
            <mxPoint x="590" y="390" as="targetPoint" />
          </mxGeometry>
        </mxCell>
        <mxCell id="UmrfJhxMaLxL_1KEjty2-41" value="" style="rounded=1;whiteSpace=wrap;html=1;fillColor=#fff2cc;strokeColor=#d6b656;" vertex="1" parent="1">
          <mxGeometry x="540" y="610" width="120" height="60" as="geometry" />
        </mxCell>
        <mxCell id="UmrfJhxMaLxL_1KEjty2-42" value="Reviews" style="text;html=1;align=center;verticalAlign=middle;whiteSpace=wrap;rounded=0;" vertex="1" parent="1">
          <mxGeometry x="570" y="625" width="60" height="30" as="geometry" />
        </mxCell>
        <mxCell id="UmrfJhxMaLxL_1KEjty2-44" value="event_id" style="ellipse;whiteSpace=wrap;html=1;fillColor=#dae8fc;strokeColor=#6c8ebf;" vertex="1" parent="1">
          <mxGeometry x="410" y="740" width="140" height="50" as="geometry" />
        </mxCell>
        <mxCell id="UmrfJhxMaLxL_1KEjty2-45" value="review_description" style="ellipse;whiteSpace=wrap;html=1;fillColor=#dae8fc;strokeColor=#6c8ebf;" vertex="1" parent="1">
          <mxGeometry x="560" y="750" width="140" height="50" as="geometry" />
        </mxCell>
        <mxCell id="UmrfJhxMaLxL_1KEjty2-46" value="review_rating" style="ellipse;whiteSpace=wrap;html=1;fillColor=#dae8fc;strokeColor=#6c8ebf;" vertex="1" parent="1">
          <mxGeometry x="700" y="700" width="140" height="50" as="geometry" />
        </mxCell>
        <mxCell id="UmrfJhxMaLxL_1KEjty2-47" value="review_img" style="ellipse;whiteSpace=wrap;html=1;fillColor=#dae8fc;strokeColor=#6c8ebf;" vertex="1" parent="1">
          <mxGeometry x="760" y="600" width="140" height="50" as="geometry" />
        </mxCell>
        <mxCell id="UmrfJhxMaLxL_1KEjty2-48" value="review_id" style="ellipse;whiteSpace=wrap;html=1;fillColor=#e1d5e7;strokeColor=#9673a6;" vertex="1" parent="1">
          <mxGeometry x="340" y="590" width="140" height="50" as="geometry" />
        </mxCell>
        <mxCell id="UmrfJhxMaLxL_1KEjty2-49" value="PK" style="text;html=1;align=center;verticalAlign=middle;whiteSpace=wrap;rounded=0;" vertex="1" parent="1">
          <mxGeometry x="330" y="570" width="60" height="30" as="geometry" />
        </mxCell>
        <mxCell id="UmrfJhxMaLxL_1KEjty2-50" value="FK" style="text;html=1;align=center;verticalAlign=middle;whiteSpace=wrap;rounded=0;" vertex="1" parent="1">
          <mxGeometry x="390" y="720" width="60" height="30" as="geometry" />
        </mxCell>
        <mxCell id="UmrfJhxMaLxL_1KEjty2-51" value="" style="endArrow=none;html=1;rounded=0;exitX=0;exitY=0.25;exitDx=0;exitDy=0;entryX=0.996;entryY=0.69;entryDx=0;entryDy=0;entryPerimeter=0;" edge="1" parent="1" source="UmrfJhxMaLxL_1KEjty2-41" target="UmrfJhxMaLxL_1KEjty2-48">
          <mxGeometry width="50" height="50" relative="1" as="geometry">
            <mxPoint x="660" y="640" as="sourcePoint" />
            <mxPoint x="710" y="590" as="targetPoint" />
          </mxGeometry>
        </mxCell>
        <mxCell id="UmrfJhxMaLxL_1KEjty2-52" value="" style="endArrow=none;html=1;rounded=0;exitX=0.25;exitY=1;exitDx=0;exitDy=0;entryX=0.708;entryY=0.063;entryDx=0;entryDy=0;entryPerimeter=0;" edge="1" parent="1" source="UmrfJhxMaLxL_1KEjty2-41" target="UmrfJhxMaLxL_1KEjty2-44">
          <mxGeometry width="50" height="50" relative="1" as="geometry">
            <mxPoint x="550" y="635" as="sourcePoint" />
            <mxPoint x="489" y="635" as="targetPoint" />
          </mxGeometry>
        </mxCell>
        <mxCell id="UmrfJhxMaLxL_1KEjty2-53" value="" style="endArrow=none;html=1;rounded=0;exitX=0.561;exitY=0.09;exitDx=0;exitDy=0;entryX=0.75;entryY=1;entryDx=0;entryDy=0;exitPerimeter=0;" edge="1" parent="1" source="UmrfJhxMaLxL_1KEjty2-45" target="UmrfJhxMaLxL_1KEjty2-41">
          <mxGeometry width="50" height="50" relative="1" as="geometry">
            <mxPoint x="560" y="645" as="sourcePoint" />
            <mxPoint x="499" y="645" as="targetPoint" />
          </mxGeometry>
        </mxCell>
        <mxCell id="UmrfJhxMaLxL_1KEjty2-54" value="" style="endArrow=none;html=1;rounded=0;exitX=1;exitY=0.75;exitDx=0;exitDy=0;entryX=0.404;entryY=0.05;entryDx=0;entryDy=0;entryPerimeter=0;" edge="1" parent="1" source="UmrfJhxMaLxL_1KEjty2-41" target="UmrfJhxMaLxL_1KEjty2-46">
          <mxGeometry width="50" height="50" relative="1" as="geometry">
            <mxPoint x="570" y="655" as="sourcePoint" />
            <mxPoint x="509" y="655" as="targetPoint" />
          </mxGeometry>
        </mxCell>
        <mxCell id="UmrfJhxMaLxL_1KEjty2-55" value="" style="endArrow=none;html=1;rounded=0;exitX=0;exitY=0.5;exitDx=0;exitDy=0;entryX=1;entryY=0.25;entryDx=0;entryDy=0;" edge="1" parent="1" source="UmrfJhxMaLxL_1KEjty2-47" target="UmrfJhxMaLxL_1KEjty2-41">
          <mxGeometry width="50" height="50" relative="1" as="geometry">
            <mxPoint x="580" y="665" as="sourcePoint" />
            <mxPoint x="519" y="665" as="targetPoint" />
          </mxGeometry>
        </mxCell>
        <mxCell id="UmrfJhxMaLxL_1KEjty2-56" value="1&lt;span style=&quot;color: rgba(0, 0, 0, 0); font-family: monospace; font-size: 0px; text-align: start; text-wrap: nowrap;&quot;&gt;%3CmxGraphModel%3E%3Croot%3E%3CmxCell%20id%3D%220%22%2F%3E%3CmxCell%20id%3D%221%22%20parent%3D%220%22%2F%3E%3CmxCell%20id%3D%222%22%20value%3D%22PK%22%20style%3D%22text%3Bhtml%3D1%3Balign%3Dcenter%3BverticalAlign%3Dmiddle%3BwhiteSpace%3Dwrap%3Brounded%3D0%3B%22%20vertex%3D%221%22%20parent%3D%221%22%3E%3CmxGeometry%20x%3D%22330%22%20y%3D%22570%22%20width%3D%2260%22%20height%3D%2230%22%20as%3D%22geometry%22%2F%3E%3C%2FmxCell%3E%3C%2Froot%3E%3C%2FmxGraphModel%3E&lt;/span&gt;" style="text;html=1;align=center;verticalAlign=middle;whiteSpace=wrap;rounded=0;" vertex="1" parent="1">
          <mxGeometry x="560" y="360" width="60" height="30" as="geometry" />
        </mxCell>
        <mxCell id="UmrfJhxMaLxL_1KEjty2-57" value="M" style="text;html=1;align=center;verticalAlign=middle;whiteSpace=wrap;rounded=0;" vertex="1" parent="1">
          <mxGeometry x="550" y="580" width="60" height="30" as="geometry" />
        </mxCell>
        <mxCell id="UmrfJhxMaLxL_1KEjty2-59" value="" style="endArrow=none;html=1;rounded=0;entryX=1;entryY=1;entryDx=0;entryDy=0;exitX=0;exitY=0.5;exitDx=0;exitDy=0;" edge="1" parent="1" source="UmrfJhxMaLxL_1KEjty2-39" target="xXyGl-QL723BDFPVCsQ5-5">
          <mxGeometry width="50" height="50" relative="1" as="geometry">
            <mxPoint x="919" y="440" as="sourcePoint" />
            <mxPoint x="703" y="384" as="targetPoint" />
          </mxGeometry>
        </mxCell>
        <mxCell id="UmrfJhxMaLxL_1KEjty2-61" value="event_cost" style="ellipse;whiteSpace=wrap;html=1;fillColor=#dae8fc;strokeColor=#6c8ebf;" vertex="1" parent="1">
          <mxGeometry x="890" y="410" width="140" height="50" as="geometry" />
        </mxCell>
        <mxCell id="UmrfJhxMaLxL_1KEjty2-62" value="" style="endArrow=none;html=1;rounded=0;exitX=0;exitY=0;exitDx=0;exitDy=0;entryX=0.75;entryY=1;entryDx=0;entryDy=0;" edge="1" parent="1" source="UmrfJhxMaLxL_1KEjty2-61" target="xXyGl-QL723BDFPVCsQ5-5">
          <mxGeometry width="50" height="50" relative="1" as="geometry">
            <mxPoint x="746" y="572" as="sourcePoint" />
            <mxPoint x="700" y="390" as="targetPoint" />
          </mxGeometry>
        </mxCell>
        <mxCell id="UmrfJhxMaLxL_1KEjty2-63" value="event_location" style="ellipse;whiteSpace=wrap;html=1;fillColor=#dae8fc;strokeColor=#6c8ebf;" vertex="1" parent="1">
          <mxGeometry x="650" y="470" width="140" height="50" as="geometry" />
        </mxCell>
        <mxCell id="UmrfJhxMaLxL_1KEjty2-64" value="" style="endArrow=none;html=1;rounded=0;entryX=1;entryY=0;entryDx=0;entryDy=0;exitX=0.413;exitY=0.019;exitDx=0;exitDy=0;exitPerimeter=0;" edge="1" parent="1" source="UmrfJhxMaLxL_1KEjty2-63" target="UmrfJhxMaLxL_1KEjty2-56">
          <mxGeometry width="50" height="50" relative="1" as="geometry">
            <mxPoint x="856" y="462" as="sourcePoint" />
            <mxPoint x="640" y="370" as="targetPoint" />
          </mxGeometry>
        </mxCell>
        <mxCell id="UmrfJhxMaLxL_1KEjty2-66" value="user_location" style="ellipse;whiteSpace=wrap;html=1;fillColor=#dae8fc;strokeColor=#6c8ebf;" vertex="1" parent="1">
          <mxGeometry x="330" y="340" width="140" height="50" as="geometry" />
        </mxCell>
        <mxCell id="UmrfJhxMaLxL_1KEjty2-67" value="" style="endArrow=none;html=1;rounded=0;exitX=1;exitY=1;exitDx=0;exitDy=0;entryX=0.019;entryY=0.367;entryDx=0;entryDy=0;entryPerimeter=0;" edge="1" parent="1" source="xXyGl-QL723BDFPVCsQ5-4" target="UmrfJhxMaLxL_1KEjty2-66">
          <mxGeometry width="50" height="50" relative="1" as="geometry">
            <mxPoint x="320" y="340" as="sourcePoint" />
            <mxPoint x="580" y="340" as="targetPoint" />
          </mxGeometry>
        </mxCell>
        <mxCell id="UmrfJhxMaLxL_1KEjty2-68" value="user_id" style="ellipse;whiteSpace=wrap;html=1;fillColor=#dae8fc;strokeColor=#6c8ebf;" vertex="1" parent="1">
          <mxGeometry x="340" y="660" width="140" height="50" as="geometry" />
        </mxCell>
        <mxCell id="UmrfJhxMaLxL_1KEjty2-69" value="FK" style="text;html=1;align=center;verticalAlign=middle;whiteSpace=wrap;rounded=0;" vertex="1" parent="1">
          <mxGeometry x="320" y="640" width="60" height="30" as="geometry" />
        </mxCell>
        <mxCell id="UmrfJhxMaLxL_1KEjty2-70" value="" style="endArrow=none;html=1;rounded=0;exitX=0;exitY=0.75;exitDx=0;exitDy=0;entryX=0.96;entryY=0.306;entryDx=0;entryDy=0;entryPerimeter=0;" edge="1" parent="1" source="UmrfJhxMaLxL_1KEjty2-41" target="UmrfJhxMaLxL_1KEjty2-68">
          <mxGeometry width="50" height="50" relative="1" as="geometry">
            <mxPoint x="580" y="680" as="sourcePoint" />
            <mxPoint x="519" y="753" as="targetPoint" />
          </mxGeometry>
        </mxCell>
        <mxCell id="UmrfJhxMaLxL_1KEjty2-71" value="" style="endArrow=none;html=1;rounded=0;entryX=0.75;entryY=1;entryDx=0;entryDy=0;exitX=0;exitY=0;exitDx=0;exitDy=0;" edge="1" parent="1" source="UmrfJhxMaLxL_1KEjty2-41" target="xXyGl-QL723BDFPVCsQ5-4">
          <mxGeometry width="50" height="50" relative="1" as="geometry">
            <mxPoint x="160" y="490" as="sourcePoint" />
            <mxPoint x="230" y="370" as="targetPoint" />
          </mxGeometry>
        </mxCell>
        <mxCell id="UmrfJhxMaLxL_1KEjty2-72" value="M" style="text;html=1;align=center;verticalAlign=middle;whiteSpace=wrap;rounded=0;" vertex="1" parent="1">
          <mxGeometry x="510" y="570" width="60" height="30" as="geometry" />
        </mxCell>
        <mxCell id="UmrfJhxMaLxL_1KEjty2-73" value="1&lt;span style=&quot;color: rgba(0, 0, 0, 0); font-family: monospace; font-size: 0px; text-align: start; text-wrap: nowrap;&quot;&gt;%3CmxGraphModel%3E%3Croot%3E%3CmxCell%20id%3D%220%22%2F%3E%3CmxCell%20id%3D%221%22%20parent%3D%220%22%2F%3E%3CmxCell%20id%3D%222%22%20value%3D%22User%22%20style%3D%22text%3Bhtml%3D1%3Balign%3Dcenter%3BverticalAlign%3Dmiddle%3BwhiteSpace%3Dwrap%3Brounded%3D0%3B%22%20vertex%3D%221%22%20parent%3D%221%22%3E%3CmxGeometry%20x%3D%22220%22%20y%3D%22315%22%20width%3D%2260%22%20height%3D%2230%22%20as%3D%22geometry%22%2F%3E%3C%2FmxCell%3E%3C%2Froot%3E%3C%2FmxGraphModel%3E&lt;/span&gt;" style="text;html=1;align=center;verticalAlign=middle;whiteSpace=wrap;rounded=0;" vertex="1" parent="1">
          <mxGeometry x="250" y="360" width="60" height="30" as="geometry" />
        </mxCell>
      </root>
    </mxGraphModel>
  </diagram>
</mxfile>
